<?xml version="1.0" encoding="utf-8"?>
<!-- Generator: Adobe Illustrator 24.1.2, SVG Export Plug-In . SVG Version: 6.00 Build 0)  -->
<svg version="1.1" id="Layer_1" xmlns="http://www.w3.org/2000/svg" xmlns:xlink="http://www.w3.org/1999/xlink" x="0px" y="0px"
	 viewBox="0 0 1398 761" style="enable-background:new 0 0 1398 761;" xml:space="preserve">
<style type="text/css">
	.st0{fill:#FFFFFF;}
	.st1{fill:#EEEFF2;}
	.st2{fill:#40B771;}
	.st3{font-family:-apple-system,BlinkMacSystemFont,&apos;Segoe UI&apos;,Roboto,Oxygen-Sans,Ubuntu,Cantarell,&apos;Helvetica Neue&apos;,sans-serif; }
	.st4{font-size:12.6809px;}
	.st5{fill:#8E929D;}
	.st6{fill:#FFC400;}
	.st7{fill:#4E5360;}
	.st8{fill:#EE6A5E;}
	.st9{fill:#F6C050;}
	.st10{fill:#61C957;}
	.st11{fill:none;stroke:#FFFFFF;stroke-linecap:round;stroke-linejoin:round;stroke-miterlimit:2.6667;}
	.st12{fill:#38A063;}
	.st13{fill:none;stroke:#DFE0E3;stroke-miterlimit:10;}
	.st14{fill:none;stroke:#A3A3A3;stroke-miterlimit:10;}
	.st15{fill:#328ED8;}
	.st16{font-size:14px;}
	.st17{font-size:12px;}
	.st18{fill:#333333;}
	.st19{font-size:18px;}
	.st20{fill:url(#SVGID_1_);}
	.st21{fill:#62B9FF;}
	.st22{opacity:0.18;fill:#FFFFFF;}
	.st23{opacity:0.38;fill:none;stroke:#FFFFFF;stroke-miterlimit:10;enable-background:new    ;}
	.st24{fill:none;stroke:#CB2429;stroke-width:0.657;stroke-miterlimit:10;}
	.st25{opacity:0.7;}
	.st26{opacity:0.7;fill:#FFFFFF;enable-background:new    ;}
	.st27{fill:none;stroke:#FFFFFF;stroke-linecap:round;stroke-linejoin:round;}
	.st28{opacity:0.7;fill:#FFFFFF;}
</style>

<g id="others">
	<rect id="background" class="st0" width="1398" height="761"/>
	<rect class="st1" width="1398" height="20"/>
	<path class="st2" d="M1360,58h-161c-1.66,0-3,1.34-3,3v28c0,1.66,1.34,3,3,3h161c1.66,0,3-1.34,3-3V61
		C1363,59.34,1361.66,58,1360,58z"/>
	<text transform="matrix(1.0198 0 0 1 1211.7961 78.8828)" class="st0 st3 st4">Add new post</text>
	<path class="st5" d="M659.67,267.98l0.33-0.48l-0.33-0.48c-2.43-3.53-5.68-5.47-9.17-5.47c-1.48,0-2.91,0.37-4.26,1.04l-3.45-3.46
		c-0.17-0.17-0.46-0.17-0.63,0s-0.17,0.46,0,0.63l3.26,3.27c-1.51,0.92-2.9,2.26-4.08,3.99L641,267.5l0.33,0.48
		c2.43,3.53,5.68,5.47,9.17,5.47c1.48,0,2.91-0.37,4.26-1.04l3.45,3.46c0.09,0.09,0.2,0.13,0.32,0.13s0.23-0.04,0.32-0.13
		c0.17-0.17,0.17-0.46,0-0.63l-3.26-3.27C657.09,271.04,658.48,269.71,659.67,267.98z M650.5,271.32c-2.1,0-3.8-1.71-3.8-3.82
		c0-0.89,0.32-1.7,0.83-2.35l0.97,0.97c-0.27,0.39-0.43,0.87-0.43,1.38c0,1.35,1.09,2.44,2.44,2.44c0.51,0,0.98-0.16,1.38-0.43
		l0.97,0.97C652.2,271,651.39,271.32,650.5,271.32z M652.51,268.88c0.27-0.39,0.43-0.87,0.43-1.38c0-0.28-0.06-0.55-0.15-0.8
		c-0.12,0.35-0.44,0.61-0.83,0.61c-0.49,0-0.89-0.4-0.89-0.89c0-0.48,0.38-0.87,0.86-0.89c-0.4-0.29-0.89-0.47-1.42-0.47
		c-0.51,0-0.98,0.16-1.38,0.43l-0.97-0.97c0.65-0.51,1.45-0.83,2.34-0.83c2.1,0,3.8,1.71,3.8,3.82c0,0.89-0.32,1.7-0.83,2.35
		L652.51,268.88z"/>
	<path class="st6" d="M793.85,644.19c0.29-0.3,0.12-0.81-0.29-0.87l-4.3-0.66c-0.17-0.03-0.32-0.14-0.39-0.29l-1.91-4.07
		c-0.09-0.2-0.28-0.3-0.47-0.3s-0.37,0.1-0.47,0.3l-1.91,4.07c-0.07,0.16-0.22,0.27-0.39,0.29l-4.3,0.66
		c-0.41,0.06-0.58,0.57-0.29,0.87l3.14,3.23c0.11,0.12,0.17,0.28,0.14,0.44l-0.74,4.54c-0.05,0.33,0.21,0.6,0.51,0.6
		c0.08,0,0.17-0.02,0.25-0.07l3.8-2.11c0.08-0.04,0.16-0.06,0.25-0.06s0.17,0.02,0.25,0.06l3.8,2.11c0.08,0.05,0.17,0.07,0.25,0.07
		c0.3,0,0.56-0.27,0.51-0.6l-0.74-4.54c-0.03-0.16,0.03-0.33,0.14-0.44L793.85,644.19z M789.28,646.02
		c-0.55,0.57-0.81,1.38-0.68,2.16l0.25,1.52l-1.12-0.62c-0.37-0.21-0.79-0.32-1.22-0.32s-0.85,0.11-1.22,0.32l-1.12,0.62l0.25-1.52
		c0.13-0.78-0.13-1.59-0.68-2.16l-1.14-1.17l1.45-0.22c0.83-0.13,1.54-0.66,1.9-1.42l0.56-1.2l0.56,1.2
		c0.36,0.76,1.07,1.29,1.9,1.42l1.45,0.22L789.28,646.02z"/>
	<g>
		<circle class="st5" cx="1378.73" cy="32.89" r="1"/>
		<circle class="st5" cx="1378.73" cy="37.89" r="1"/>
		<circle class="st5" cx="1378.73" cy="42.89" r="1"/>
	</g>
	<path class="st7" d="M344.85,70.51l-2.36-2.36c0,0,0,0-0.01,0c0.58-0.84,0.92-1.85,0.92-2.95c0-2.87-2.33-5.2-5.2-5.2
		s-5.2,2.33-5.2,5.2s2.33,5.2,5.2,5.2c1.09,0,2.11-0.34,2.95-0.92c0,0,0,0,0,0.01l2.36,2.36c0.26,0.26,0.77,0.17,1.14-0.19
		C345.02,71.29,345.11,70.77,344.85,70.51z M338.2,68.8c-1.99,0-3.6-1.61-3.6-3.6s1.61-3.6,3.6-3.6c1.99,0,3.6,1.61,3.6,3.6
		C341.8,67.19,340.19,68.8,338.2,68.8z"/>
	<circle class="st8" cx="14" cy="10" r="4"/>
	<circle class="st9" cx="27" cy="10" r="4"/>
	<circle class="st10" cx="39.72" cy="10" r="4"/>
	<path class="st11" d="M1303,70h3.85v3.85H1303V70z M1309.15,70v3.85h3.85V70H1309.15z M1309.15,80h3.85v-3.85h-3.85V80z M1303,80
		h3.85v-3.85H1303V80z"/>
	<path class="st12" d="M1360,58h-31v34h31c1.66,0,3-1.34,3-3V61C1363,59.34,1361.66,58,1360,58z"/>
	<polygon class="st0" points="1345,77 1348,74 1342,74 	"/>
</g>
<g id="borders">
	<line class="st13" x1="271.5" y1="173.32" x2="1362.5" y2="172.32"/>
	<line class="st13" x1="271.5" y1="237.32" x2="1362.5" y2="236.32"/>
	<line class="st13" x1="271.5" y1="299.32" x2="1362.5" y2="298.32"/>
	<line class="st13" x1="271.5" y1="363.32" x2="1362.5" y2="362.32"/>
	<line class="st13" x1="271.5" y1="425.32" x2="1362.5" y2="424.32"/>
	<line class="st13" x1="271.5" y1="489.32" x2="1362.5" y2="488.32"/>
	<line class="st13" x1="271.5" y1="551.32" x2="1362.5" y2="550.32"/>
	<line class="st13" x1="271.5" y1="681.32" x2="1362.5" y2="680.32"/>
	<line class="st13" x1="271.5" y1="615.32" x2="1362.5" y2="614.32"/>
</g>
<g id="checbox">
	<path class="st14" d="M281,154h-8c-1.1,0-2-0.9-2-2v-8c0-1.1,0.9-2,2-2h8c1.1,0,2,0.9,2,2v8C283,153.1,282.1,154,281,154z"/>
	<path class="st14" d="M281,213h-8c-1.1,0-2-0.9-2-2v-8c0-1.1,0.9-2,2-2h8c1.1,0,2,0.9,2,2v8C283,212.1,282.1,213,281,213z"/>
	<path class="st14" d="M281,276h-8c-1.1,0-2-0.9-2-2v-8c0-1.1,0.9-2,2-2h8c1.1,0,2,0.9,2,2v8C283,275.1,282.1,276,281,276z"/>
	<path class="st14" d="M281,339h-8c-1.1,0-2-0.9-2-2v-8c0-1.1,0.9-2,2-2h8c1.1,0,2,0.9,2,2v8C283,338.1,282.1,339,281,339z"/>
	<path class="st14" d="M281,402h-8c-1.1,0-2-0.9-2-2v-8c0-1.1,0.9-2,2-2h8c1.1,0,2,0.9,2,2v8C283,401.1,282.1,402,281,402z"/>
	<path class="st14" d="M281,465h-8c-1.1,0-2-0.9-2-2v-8c0-1.1,0.9-2,2-2h8c1.1,0,2,0.9,2,2v8C283,464.1,282.1,465,281,465z"/>
	<path class="st14" d="M281,528h-8c-1.1,0-2-0.9-2-2v-8c0-1.1,0.9-2,2-2h8c1.1,0,2,0.9,2,2v8C283,527.1,282.1,528,281,528z"/>
	<path class="st14" d="M281,591h-8c-1.1,0-2-0.9-2-2v-8c0-1.1,0.9-2,2-2h8c1.1,0,2,0.9,2,2v8C283,590.1,282.1,591,281,591z"/>
	<path class="st14" d="M281,721h-8c-1.1,0-2-0.9-2-2v-8c0-1.1,0.9-2,2-2h8c1.1,0,2,0.9,2,2v8C283,720.1,282.1,721,281,721z"/>
	<path class="st14" d="M281,654h-8c-1.1,0-2-0.9-2-2v-8c0-1.1,0.9-2,2-2h8c1.1,0,2,0.9,2,2v8C283,653.1,282.1,654,281,654z"/>
</g>
<g id="text">
	<text transform="matrix(1 0 0 1 310.0001 211.7178)" class="st15 st3 st16">Maximum website performance thanks to fast themes</text>
	<text transform="matrix(1 0 0 1 1275.9996 210.7178)" class="st15 st3 st16">Jonah Joel</text>
	<text transform="matrix(1 0 0 1 1120.0005 211.0439)" class="st7 st3 st17">April 24, 2020 11:15 pm</text>
	<text transform="matrix(1 0 0 1 1275.9996 272.7176)" class="st15 st3 st16">Codie Jem</text>
	<text transform="matrix(1 0 0 1 1120.0005 273.0438)" class="st7 st3 st17">April 11, 2020 04:07 am</text>
	<text transform="matrix(1 0 0 1 310.0001 273.7176)" class="st15 st3 st16">Make and manage as many websites as you want</text>
	<text transform="matrix(1 0 0 1 310.0001 337.7178)" class="st15 st3 st16">We want everybody to make ultra-fast, secure, exciting websites</text>
	<text transform="matrix(1 0 0 1 1275.9996 336.7178)" class="st15 st3 st16">Lamont Pace</text>
	<text transform="matrix(1 0 0 1 1120.0005 337.0439)" class="st7 st3 st17">Mar 18, 2020 06:22 pm</text>
	<text transform="matrix(1 0 0 1 1275.9996 398.7176)" class="st15 st3 st16">Jonah Joel</text>
	<text transform="matrix(1 0 0 1 1120.0005 399.0438)" class="st7 st3 st17">Mar 05, 2020 01:56 am</text>
	<text transform="matrix(1 0 0 1 310.0001 399.7176)" class="st7 st3 st16">Web Accessibility – how easily can you test your website?</text>
	<text transform="matrix(1 0 0 1 310.0001 463.7178)" class="st5 st3 st16">One-Click Synchronization gets your website changes sorted in moments</text>
	<text transform="matrix(1 0 0 1 1275.9996 462.7178)" class="st15 st3 st16">Jonah Joel</text>
	<text transform="matrix(1 0 0 1 1120.0005 463.0439)" class="st7 st3 st17">Feb 27, 2020 11:37 am</text>
	<text transform="matrix(1 0 0 1 1275.9996 524.7176)" class="st15 st3 st16">Lamont Pace</text>
	<text transform="matrix(1 0 0 1 1120.0005 525.0438)" class="st7 st3 st17">Feb 18, 2020 05:15 pm</text>
	<text transform="matrix(1 0 0 1 310.0001 525.7176)" class="st15 st3 st16">Intuitive post editor takes the frustration out of the blog writing experience</text>
	<text transform="matrix(1 0 0 1 310.0001 588.7178)" class="st15 st3 st16">Websites created with Publii are based on static HTML files</text>
	<text transform="matrix(1 0 0 1 1275.9996 588.7178)" class="st15 st3 st16">Codie Jem</text>
	<text transform="matrix(1 0 0 1 1120.0005 589.0439)" class="st7 st3 st17">Jan 24, 2020 12:12 pm</text>
	<text transform="matrix(1 0 0 1 310.0001 719.7178)" class="st15 st3 st16">Publii is a new kind of blogging experience; an app for building static websites directly on your desktop</text>
	<text transform="matrix(1 0 0 1 1275.9996 719.7178)" class="st15 st3 st16">Codie Jem</text>
	<text transform="matrix(1 0 0 1 1120.0005 719.7178)" class="st7 st3 st17">Dec 12, 2019 06:24 pm</text>
	<text transform="matrix(1 0 0 1 1275.9996 650.7176)" class="st15 st3 st16">Lamont Pace</text>
	<text transform="matrix(1 0 0 1 1120.0005 651.0438)" class="st7 st3 st17">Dec 14, 2019 02:22 am</text>
	<text transform="matrix(1 0 0 1 310.0001 651.7176)" class="st15 st3 st16">Option-packed themes let you add your personal touch to your website</text>
	<text transform="matrix(1 0 0 1 271.0001 104.0439)" class="st15 st3 st17">All (9)   </text>
	<text transform="matrix(1 0 0 1 310.0136 151.7178)" class="st18 st3 st16">Title</text>
	<text transform="matrix(1 0 0 1 269.9999 72.0659)" class="st18 st3 st19">Posts</text>
	<text transform="matrix(1 0 0 1 1120.0004 151.7178)" class="st18 st3 st16">Publication date</text>
	<text transform="matrix(1 0 0 1 1276.0004 151.7178)" class="st18 st3 st16">Author</text>
	<path class="st5" d="M799.61,459.94L795,461l1.06-4.61l6.38-6.38l0.71,0.71l-6.38,6.38l1.42,1.42l6.38-6.38l1.42,1.42
		L799.61,459.94z M805.28,451.42l1.42,1.42l0.71-0.71c0.78-0.78,0.78-2.05,0-2.84l-0.71-0.71c-0.78-0.78-2.05-0.78-2.84,0
		l-0.71,0.71l0.71,0.71L805.28,451.42z M808.53,463h-16.06c-0.26,0-0.47,0.22-0.47,0.5s0.21,0.5,0.47,0.5h16.06
		c0.26,0,0.47-0.22,0.47-0.5S808.79,463,808.53,463z"/>
	<text transform="matrix(1 0 0 1 459 104.0439)" class="st5 st3 st17">Hidden (2)</text>
	<text transform="matrix(1 0 0 1 388 104.0442)" class="st5 st3 st17">Featured (1)</text>
	<text transform="matrix(1 0 0 1 523 104.0439)" class="st5 st3 st17">Drafts (3)</text>
	<text transform="matrix(1 0 0 1 580.0117 104.0439)" class="st5 st3 st17">Trashed (3)</text>
	<text transform="matrix(1 0 0 1 311 104.0442)" class="st5 st3 st17">Published (6)</text>
</g>
<g id="sidebar">
	<linearGradient id="SVGID_1_" gradientUnits="userSpaceOnUse" x1="113" y1="761.0027" x2="113" y2="20">
		<stop  offset="0" style="stop-color:#42A5F5"/>
		<stop  offset="1" style="stop-color:#2093F1"/>
	</linearGradient>
	<rect y="20" class="st20" width="226" height="741"/>
	<path class="st21" d="M206,736H23c-1.1,0-2-0.9-2-2v-38c0-1.1,0.9-2,2-2h183c1.1,0,2,0.9,2,2v38C208,735.1,207.1,736,206,736z"/>
	<path class="st22" d="M205,129H26c-1.65,0-3-1.35-3-3V97c0-1.65,1.35-3,3-3h179c1.65,0,3,1.35,3,3v29
		C208,127.65,206.65,129,205,129z"/>
	<path class="st23" d="M204.58,687h-181c-1.1,0-2-0.9-2-2v-38c0-1.1,0.9-2,2-2h181c1.1,0,2,0.9,2,2v38
		C206.58,686.1,205.68,687,204.58,687z"/>
	<text transform="matrix(1 0 0 1 74.9998 720.7179)" class="st0 st3 st16">Sync your website</text>
	<text transform="matrix(1 0 0 1 49.4157 671.718)" class="st0 st3 st16">Preview your changes</text>
	<path class="st0" d="M56.67,712.78c0-0.06,0.01-0.11,0.01-0.17c0-3.65-2.96-6.61-6.62-6.61c-2.67,0-4.97,1.59-6.01,3.86
		c-0.53-0.35-1.16-0.56-1.84-0.56c-1.81,0-3.7,1.5-3.72,3.3c-1.7,0.72-2.48,2.37-2.48,4.34c0,2.55,2.02,4.63,4.55,4.74v0.01h7.03
		v3.3h1.65v-3.3h6.05c2.21,0,4.23-1.51,4.63-3.69C60.35,715.56,59.16,713.43,56.67,712.78z M49.23,717.11v3.75h-1.65v-3.75H45.1
		l3.31-4.51l3.31,4.51H49.23z"/>
	<text transform="matrix(1 0 0 1 68.0134 157.7176)" class="st0 st3 st16">Tags</text>
	<text transform="matrix(1 0 0 1 68.0134 198.7176)" class="st0 st3 st16">Menus</text>
	<text transform="matrix(1 0 0 1 68.0134 239.7176)" class="st0 st3 st16">Authors</text>
	<text transform="matrix(1 0 0 1 68.0134 281.1098)" class="st0 st3 st16">Theme</text>
	<text transform="matrix(1 0 0 1 68.0134 322.4398)" class="st0 st3 st16">Site settings</text>
	<text transform="matrix(1 0 0 1 68.0134 404.7176)" class="st0 st3 st16">Tools</text>
	<text transform="matrix(1 0 0 1 68.0132 363.7174)" class="st0 st3 st16">Server</text>
	<path class="st24" d="M149.72,600.67"/>
	<g>
		<path class="st24" d="M144.46,588.53"/>
	</g>
	<text transform="matrix(1 0 0 1 67.9998 116.7176)" class="st0 st3 st16">Posts</text>
	<g id="icons">
		<path class="st0" d="M49.33,108.33v8.89c0,0.98-0.8,1.78-1.78,1.78h-9.78c-0.98,0-1.78-0.8-1.78-1.78v-9.78
			c0-0.98,0.8-1.78,1.78-1.78h8c-0.89,0-1.78,1.78-2.67,1.78h-5.33v9.78h9.78V111C47.56,109.22,49.33,110.11,49.33,108.33z
			 M42.5,110.43c-0.34,0.31-0.38,0.84-0.07,1.18c0.3,0.34,0.83,0.38,1.18,0.07l6.24-5.55c-0.55-0.63-0.55-0.63-1.11-1.25
			L42.5,110.43z M51.79,103.28c-0.3-0.34-0.83-0.38-1.18-0.07l-0.62,0.56c0.55,0.63,0.55,0.63,1.11,1.25l0.62-0.56
			C52.06,104.16,52.1,103.63,51.79,103.28z"/>
		<g class="st25">
			<path class="st0" d="M51.98,148.13c0-1.16-0.95-2.11-2.11-2.11L44.99,146c0,0,0,0-0.01,0c-0.55,0-1.09,0.22-1.48,0.61l-6.89,6.89
				c-0.82,0.82-0.82,2.16,0.01,2.98l4.9,4.9c0.41,0.41,0.96,0.62,1.5,0.62s1.07-0.2,1.48-0.61l6.89-6.89
				c0.39-0.39,0.62-0.94,0.61-1.49L51.98,148.13z M50.36,153.47l-6.89,6.89c-0.25,0.25-0.67,0.25-0.92-0.01l-4.9-4.9
				c-0.26-0.26-0.26-0.67-0.01-0.92l6.89-6.89c0.12-0.12,0.28-0.19,0.46-0.19l0,0l4.88,0.02c0.36,0,0.66,0.3,0.66,0.66l0.02,4.88
				C50.55,153.19,50.48,153.35,50.36,153.47z"/>
			<circle class="st0" cx="46.91" cy="151.09" r="1.45"/>
		</g>
		<path class="st26" d="M45.79,189.75h-8.92c-0.48,0-0.88-0.39-0.88-0.88l0,0c0-0.48,0.39-0.88,0.88-0.88h8.92
			c0.48,0,0.88,0.39,0.88,0.88l0,0C46.67,189.36,46.27,189.75,45.79,189.75z M42.24,195.88h-5.36c-0.48,0-0.88-0.39-0.88-0.88l0,0
			c0-0.48,0.39-0.88,0.88-0.88h5.36c0.48,0,0.88,0.39,0.88,0.88l0,0C43.11,195.48,42.72,195.88,42.24,195.88z M51.12,202H36.88
			c-0.48,0-0.88-0.39-0.88-0.88l0,0c0-0.48,0.39-0.88,0.88-0.88h14.25c0.48,0,0.88,0.39,0.88,0.88l0,0
			C52,201.61,51.61,202,51.12,202z"/>
		<path class="st26" d="M49.44,232.7c0.47-0.41,0.76-1.01,0.76-1.68c0-1.24-1.01-2.24-2.25-2.24s-2.25,1.01-2.25,2.24
			c0,0.61,0.25,1.16,0.64,1.56c-0.88,0.34-1.62,0.97-2.13,1.7c-0.22-0.14-0.45-0.27-0.68-0.39c0.78-0.73,1.27-1.75,1.27-2.9
			c0-2.21-1.81-4-4.05-4s-4.05,1.79-4.05,4c0,1.14,0.49,2.17,1.27,2.9c-2.34,1.15-3.97,3.57-3.97,5.55c0,2.7,3.02,3.56,6.75,3.56
			s6.75-0.86,6.75-3.56c0-0.29-0.04-0.6-0.11-0.9c0.12,0,0.23,0.02,0.36,0.02c2.35,0,4.25-0.55,4.25-2.28
			C52,234.99,50.94,233.43,49.44,232.7z M47.95,229.56c0.81,0,1.46,0.65,1.46,1.46s-0.66,1.46-1.46,1.46s-1.46-0.65-1.46-1.46
			S47.14,229.56,47.95,229.56z M38.5,231c0-1.23,1.01-2.22,2.25-2.22s2.25,1,2.25,2.22s-1.01,2.22-2.25,2.22S38.5,232.23,38.5,231z
			 M40.75,241.22c-1.85,0-4.95-0.23-4.95-1.78c0-1.76,2.22-4.44,4.95-4.44s4.95,2.69,4.95,4.44
			C45.7,240.99,42.6,241.22,40.75,241.22z M47.75,237.69c-0.21,0-0.43-0.02-0.64-0.03c-0.43-1.04-1.19-2.07-2.18-2.87
			c0.61-0.87,1.64-1.63,2.83-1.63c1.88,0,3.4,1.89,3.4,3.12C51.15,237.44,49.3,237.69,47.75,237.69z"/>
		<path class="st26" d="M38.6,277.58v-7.27c0-0.49-0.41-0.89-0.9-0.89s-0.9,0.4-0.9,0.89v7.27c-1.05,0.37-1.8,1.34-1.8,2.5
			s0.75,2.14,1.8,2.5v1.94c0,0.49,0.41,0.89,0.9,0.89s0.9-0.4,0.9-0.89v-1.94c1.05-0.37,1.8-1.34,1.8-2.5S39.65,277.95,38.6,277.58z
			 M37.7,281.86c-0.99,0-1.8-0.8-1.8-1.78s0.81-1.78,1.8-1.78s1.8,0.8,1.8,1.78C39.5,281.07,38.69,281.86,37.7,281.86z M44.9,272.25
			v-1.94c0-0.49-0.41-0.89-0.9-0.89s-0.9,0.4-0.9,0.89v1.94c-1.05,0.37-1.8,1.34-1.8,2.5s0.75,2.14,1.8,2.5v7.27
			c0,0.49,0.41,0.89,0.9,0.89s0.9-0.4,0.9-0.89v-7.27c1.05-0.37,1.8-1.34,1.8-2.5S45.95,272.62,44.9,272.25z M44,276.53
			c-0.99,0-1.8-0.8-1.8-1.78s0.81-1.78,1.8-1.78s1.8,0.8,1.8,1.78S44.99,276.53,44,276.53z M53,278.31c0-1.16-0.75-2.14-1.8-2.5
			v-5.5c0-0.49-0.41-0.89-0.9-0.89s-0.9,0.4-0.9,0.89v5.5c-1.05,0.37-1.8,1.34-1.8,2.5s0.75,2.14,1.8,2.5v3.72
			c0,0.49,0.41,0.89,0.9,0.89s0.9-0.4,0.9-0.89v-3.72C52.25,280.44,53,279.47,53,278.31z M50.3,280.09c-0.31,0-0.59-0.08-0.84-0.22
			c-0.02-0.03-0.04-0.06-0.05-0.09c0,0,0-0.01-0.01-0.01v0.07c-0.54-0.31-0.9-0.88-0.9-1.53c0-0.98,0.81-1.78,1.8-1.78
			s1.8,0.8,1.8,1.78C52.1,279.29,51.29,280.09,50.3,280.09z"/>
		<path class="st26" d="M41.84,400.65c-1.47,1.11-3.6,0.94-4.8-0.46c-0.89-1.05-1.21-2.41-0.95-3.69c0.07-0.34,0.49-0.46,0.73-0.21
			l2.99,2.81c1.23,1.23,3.05-2.29,2.46-3.05l-2.99-2.23c-0.24-0.24-0.12-0.67,0.22-0.74c1.37-0.28,2.85,0.12,3.92,1.19
			C45.39,396.27,44.21,398.87,41.84,400.65z M52,407.46c0,0.4-0.15,0.79-0.45,1.09S50.86,409,50.46,409c-0.39,0-0.79-0.15-1.09-0.45
			l-6.3-6.33c-0.49-0.49-1.04-0.61-1.74-0.61c1.41-0.71,2.56-1.86,3.26-3.28c0,0.7,0.16,1.21,0.65,1.7l6.3,6.33
			C51.85,406.66,52,407.06,52,407.46z M51.01,406.91c-0.3-0.3-0.79-0.3-1.09,0s-0.3,0.79,0,1.09s0.79,0.3,1.09,0
			C51.31,407.7,51.31,407.21,51.01,406.91z"/>
		<g class="st25">
			<path class="st0" d="M52,319.86v-2.59l-1.68-0.42c-0.15-0.54-0.36-1.05-0.63-1.53l0.89-1.49l-1.82-1.84l-1.5,0.89
				c-0.48-0.28-1-0.49-1.53-0.64l-0.44-1.67H42.7l-0.42,1.68c-0.54,0.15-1.05,0.36-1.53,0.64l-1.5-0.89l-1.82,1.84l0.89,1.49
				c-0.28,0.48-0.49,0.99-0.63,1.53L36,317.27v2.59l1.68,0.42c0.15,0.54,0.36,1.05,0.64,1.53l-0.89,1.5l1.84,1.82l1.49-0.89
				c0.48,0.28,1,0.49,1.53,0.63l0.42,1.68h2.59l0.42-1.68c0.54-0.15,1.05-0.36,1.53-0.63l1.49,0.89l1.84-1.82l-0.89-1.5
				c0.28-0.48,0.49-1,0.64-1.53L52,319.86z M49.08,319.1L49,319.55c-0.13,0.67-0.39,1.3-0.77,1.86l-0.26,0.38l0.77,1.3l-0.23,0.23
				l-1.29-0.77l-0.38,0.26c-0.56,0.38-1.19,0.64-1.86,0.77l-0.45,0.09l-0.37,1.46h-0.32l-0.37-1.46l-0.45-0.1
				c-0.67-0.13-1.29-0.39-1.86-0.77l-0.38-0.26l-1.29,0.77l-0.23-0.23l0.77-1.3l-0.26-0.38c-0.38-0.56-0.64-1.19-0.77-1.86
				l-0.09-0.45l-1.46-0.37v-0.32l1.46-0.37l0.09-0.45c0.13-0.67,0.39-1.3,0.77-1.86l0.26-0.38l-0.78-1.29l0.23-0.23l1.3,0.77
				l0.38-0.26c0.56-0.38,1.19-0.64,1.86-0.77l0.45-0.09l0.37-1.46h0.32l0.37,1.46l0.45,0.09c0.67,0.13,1.3,0.39,1.86,0.77l0.38,0.26
				l1.3-0.77l0.23,0.23l-0.78,1.29l0.26,0.38c0.38,0.56,0.64,1.19,0.77,1.86l0.09,0.45l1.46,0.37v0.32L49.08,319.1z"/>
			<path class="st0" d="M44,315.65c-1.6,0-2.91,1.31-2.91,2.91s1.31,2.91,2.91,2.91s2.91-1.31,2.91-2.91S45.6,315.65,44,315.65z
				 M44,320.02c-0.8,0-1.45-0.65-1.45-1.45s0.65-1.45,1.45-1.45s1.45,0.65,1.45,1.45S44.8,320.02,44,320.02z"/>
		</g>
		<path class="st26" d="M50.22,352H37.78c-0.98,0-1.78,0.8-1.78,1.78v4.44c0,0.98,0.8,1.78,1.78,1.78h12.44
			c0.98,0,1.78-0.8,1.78-1.78v-4.44C52,352.8,51.2,352,50.22,352z M50.22,358.22H37.78v-4.44h12.44L50.22,358.22z M50.22,361.78
			c0.59,0,1.19,0,1.78,0v4.44c0,0.98-0.8,1.78-1.78,1.78H37.78c-0.98,0-1.78-0.8-1.78-1.78v-4.44c0.59,0,1.19,0,1.78,0v4.44h12.44
			L50.22,361.78z M41.78,364.44c-0.74,0-1.33-0.6-1.33-1.33s0.6-1.33,1.33-1.33s1.33,0.6,1.33,1.33S42.51,364.44,41.78,364.44z"/>
	</g>
	<text transform="matrix(1 0 0 1 54.0064 61.3893)" class="st0 st3 st16">Website name</text>
	<g id="cup">
		<path class="st27" d="M35.12,52.56h0.7c1.55,0,2.8,1.25,2.8,2.8c0,1.55-1.25,2.8-2.8,2.8h-0.7"/>
		<path class="st27" d="M23.92,52.56h11.2v6.3c0,1.55-1.25,2.8-2.8,2.8h-5.6c-1.55,0-2.8-1.25-2.8-2.8V52.56z"/>
		<line class="st27" x1="26.72" y1="47.66" x2="26.72" y2="49.76"/>
		<line class="st27" x1="29.52" y1="47.66" x2="29.52" y2="49.76"/>
		<line class="st27" x1="32.32" y1="47.66" x2="32.32" y2="49.76"/>
	</g>
	<polygon class="st28" points="202,58 205,55 199,55 	"/>
</g>
</svg>
