<svg xmlns="http://www.w3.org/2000/svg" viewBox="0 0 800 390" enable-background="new 0 0 800 390"><style>.st1{fill:#4e5360}.st2{font-family:-apple-system,BlinkMacSystemFont,'Segoe UI',Roboto,Oxygen-Sans,Ubuntu,Cantarell,'Helvetica Neue',sans-serif}.st6{font-size:12px}.st7{fill:#42a5f5}.st9{fill:none;stroke:#cdcfd6;stroke-width:2;stroke-linejoin:round;stroke-miterlimit:10}.st10{fill-rule:evenodd;clip-rule:evenodd;fill:#2daafa}.st15{fill:#fff;stroke:#ccc;stroke-miterlimit:10}.st21{fill:#dbdce1}</style><title>Publii theme options</title><g id="image_upload"><path fill="none" stroke="#42a5f5" stroke-miterlimit="10" d="M3.5 13.8h319v203H3.5z"/><text transform="translate(72 163.935)" class="st1 st2" font-size="16">Drop to upload your file</text><text transform="translate(497 90.534)" class="st6" font-style="italic" fill="#7a7e88" font-family="-apple-system,BlinkMacSystemFont,&quot;Segoe UI&quot;,Roboto,Oxygen-Sans,Ubuntu,Cantarell,&quot;Helvetica Neue&quot;,sans-serif">The font-size of the root element in REM unit</text><text transform="translate(785 68.534)" class="st1 st2 st6">1</text><text transform="translate(781 155.535)" class="st1 st2 st6">1.3</text><path class="st7" d="M0 9.3h8v8H0zM0 212.3h8v8H0zM318 9.3h8v8h-8z"/><path class="st9" d="M511 64.3h251"/><circle class="st10" cx="506.5" cy="64.8" r="9.5"/><path class="st9" d="M511 152.3h251"/><circle class="st10" cx="557.5" cy="152.8" r="9.5"/></g><defs><filter id="dropshadow" height="130%"><feGaussianBlur in="SourceAlpha" stdDeviation="9"/><feOffset result="offsetblur"/><feComponentTransfer><feFuncA type="linear" slope=".2"/></feComponentTransfer><feMerge><feMergeNode/><feMergeNode in="SourceGraphic"/></feMerge></filter></defs><g id="color_picker"><g id="picker-bg" filter="url(#dropshadow)"><linearGradient id="SVGID_1_" gradientUnits="userSpaceOnUse" x1="442.804" y1="218.486" x2="266.166" y2="85.67"><stop offset="0" stop-color="#ffb91c"/><stop offset=".179" stop-color="#ffc43a"/><stop offset=".571" stop-color="#ffdf85"/><stop offset="1" stop-color="#ffffdf"/></linearGradient><path fill="url(#SVGID_1_)" d="M241 87.3h221v125H241z"/><g><path fill="#fff" d="M241 212.3h221v125H241z"/></g></g><linearGradient id="SVGID_2_" gradientUnits="userSpaceOnUse" x1="260" y1="238.833" x2="440" y2="238.833"><stop offset="0" stop-color="#ff2a2a"/><stop offset=".016" stop-color="#fe2f33"/><stop offset=".043" stop-color="#fc3b4d"/><stop offset=".077" stop-color="#f85076"/><stop offset=".118" stop-color="#f36db0"/><stop offset=".163" stop-color="#ed91f9"/><stop offset=".167" stop-color="#ec94ff"/><stop offset=".332" stop-color="#0f00cb"/><stop offset=".498" stop-color="#2af6ff"/><stop offset=".664" stop-color="#59ff2a"/><stop offset=".83" stop-color="#ffff6a"/><stop offset=".994" stop-color="red"/></linearGradient><path d="M433.5 245.3h-167c-3.6 0-6.5-2.9-6.5-6.5s2.9-6.5 6.5-6.5h167c3.6 0 6.5 2.9 6.5 6.5s-2.9 6.5-6.5 6.5z" fill="url(#SVGID_2_)"/><linearGradient id="SVGID_3_" gradientUnits="userSpaceOnUse" x1="260" y1="304.833" x2="440" y2="304.833" gradientTransform="rotate(180 350 283.833)"><stop offset="0" stop-color="#ffb91c"/><stop offset=".059" stop-color="#ffb71b" stop-opacity=".941"/><stop offset="1" stop-color="#ff9e0a" stop-opacity="0"/></linearGradient><path d="M266.5 256.3h167c3.6 0 6.5 2.9 6.5 6.5s-2.9 6.5-6.5 6.5h-167c-3.6 0-6.5-2.9-6.5-6.5 0-3.5 2.9-6.5 6.5-6.5z" fill="url(#SVGID_3_)"/><circle class="st15" cx="440.5" cy="262.8" r="8"/><circle class="st15" cx="418.5" cy="238.8" r="8"/><circle cx="449" cy="99.3" r="8" fill="none" stroke="#fff" stroke-width="2" stroke-miterlimit="10"/><path d="M428.5 318.8h-155c-1.1 0-2-.9-2-2v-28c0-1.1.9-2 2-2h155c1.1 0 2 .9 2 2v28c0 1.1-.9 2-2 2z" fill="none" stroke="#ccc" stroke-miterlimit="10"/><text transform="translate(324 308.235)" class="st1" style="font-weiht:600" font-size="14" font-family="-apple-system,BlinkMacSystemFont,&quot;Segoe UI&quot;,Roboto,Oxygen-Sans,Ubuntu,Cantarell,&quot;Helvetica Neue&quot;,sans-serif">E7AE12</text><g><path class="st21" d="M170 81.7c-2.5 0-4.6 2.1-4.6 4.6s2.1 4.6 4.6 4.6 4.6-2.1 4.6-4.6-2-4.6-4.6-4.6z"/><path class="st21" d="M188.5 73.3h-47.1c-3 0-5.5 2.4-5.5 5.4v30.1c0 3 2.5 5.4 5.5 5.4h47.1c3 0 5.5-2.4 5.5-5.4v-30c0-3-2.5-5.5-5.5-5.5zm3.8 31.5c-1.7-5.7-4.8-14.1-8.3-15-4.1-1-6.6 3.7-9 8.2-1.8 3.3-3.4 6.4-5.4 6.8-2.1.4-3.2-1.7-4.4-3.7-.9-1.6-1.8-3.1-3.1-3.1-1.8 0-2.9 1.6-3.9 3-.7 1.1-1.4 2-2.2 2-1.1-.1-2.6-1.9-4.5-5.5-.9-1.7-1.9-2.4-3-2.3-3.6.5-6.5 11.8-7.6 17h-.3v.3c-1.7-.4-2.9-1.9-2.9-3.6V78.8c0-2.1 1.7-3.8 3.8-3.8h47.1c2.1 0 3.8 1.7 3.8 3.8v26z"/></g></g></svg>